<?xml version="1.0" encoding="UTF-8"?>
<svg id="Layer_1" data-name="Layer 1" xmlns="http://www.w3.org/2000/svg" viewBox="0 0 200 132.46">
  <defs>
    <style>
      .cls-1 {
        fill: #b01e31;
      }
    </style>
  </defs>
  <path class="cls-1" d="M109.14,24.79c-1.32,0-2.73.31-3.75,1.09-.87.67-1.61,1.86-1.61,2.96,0,1.59,1.15,2.99,2.93,2.99.33,0,.65-.03.98-.15l-.2-.74c-1.15-.19-1.89-1.14-1.77-2.22.21-1.75,1.86-3.06,3.64-3.06,3.39,0,5.24,3.21,5.11,6.09-.15,4.32-3.84,7.47-8.25,7.47-1.93,0-3.87-.59-5.41-1.64,1.73-1.42,2.88-3.4,2.88-5.86,0-1.99-.91-3.51-2.24-4.72.93-.58,1.94-1.1,2.86-1.59,3.03-1.58,6.07-2.95,6.07-6.67,0-2.99-2.73-4.87-5.74-4.99-1-.04-1.98.36-2.89.67v-1.27s.65,0,.65,0v-.26h-2.15v.26c.53-.01.77.05.81.69v1.79h-2.55v-2.48h.69v-.26h-2.13v.26c.53-.01.72.05.75.69v.58c-.91-.31-1.9-.7-2.9-.67-3.01.12-5.74,2-5.74,4.99,0,3.72,3.05,5.09,6.08,6.67.92.49,1.93.99,2.86,1.57-1.34,1.23-2.27,2.73-2.27,4.74,0,2.46,1.15,4.45,2.89,5.87-1.53,1.03-3.47,1.62-5.39,1.62-4.42,0-8.1-3.14-8.26-7.47-.13-2.88,1.73-6.09,5.13-6.09,1.77,0,3.41,1.31,3.63,3.06.12,1.08-.63,2.02-1.78,2.22l-.21.74c.34.12.66.15,1,.15,1.77,0,2.94-1.4,2.94-2.99,0-1.1-.75-2.29-1.62-2.96-1.03-.78-2.43-1.09-3.76-1.09-4.17,0-7.27,3.35-7.27,7.15,0,5.16,4.75,8.23,9.91,8.23,2.36,0,4.78-.64,6.72-1.86,1.96,1.22,4.38,1.86,6.73,1.86,5.17,0,9.92-3.06,9.92-8.23,0-3.81-3.1-7.15-7.27-7.15M95.54,23.39c-2.24-1.16-4.93-2.49-4.93-5.25,0-1.94,1.61-3.33,3.64-3.42,1.28-.04,2.38.59,3.01,1.64.57.96.5,2.22.54,3.26v2.92h-.65v.25h2.14v-.25c-.54.01-.77-.05-.79-.68v-5.57h2.55v6.25h-.71v.25h2.15v-.25c-.54.01-.72-.05-.75-.68v-2.23c.05-1.05-.05-2.3.54-3.26.63-1.05,1.73-1.68,3.02-1.64,2.03.09,3.63.4,3.63,3.42,0,2.77-2.69,4.09-4.92,5.25-1.37.71-2.88,1.45-4.23,2.32-1.36-.88-2.89-1.61-4.25-2.32M97.78,32.14c.04-1.67.86-2.91,2-3.94,1.14,1.02,1.94,2.28,1.98,3.94.03,1.84-.75,3.42-2,4.61-1.22-1.18-2.02-2.77-1.98-4.61"/>
  <g>
    <path class="cls-1" d="M40.4,88.41h-4.44v-.61c.36,0,.64-.04.83-.12.19-.08.31-.2.36-.35.05-.15.08-.35.08-.6v-2.71h-4.19v2.71c0,.37.08.64.23.81.16.17.51.25,1.07.25v.61h-4.47v-.61c.36,0,.63-.04.82-.12.19-.08.31-.19.37-.34.06-.15.08-.35.08-.6v-5.67c0-.25-.03-.45-.08-.6-.05-.14-.17-.26-.35-.34-.18-.08-.46-.13-.84-.13v-.61h4.47v.61c-.55,0-.9.08-1.06.25-.16.16-.24.44-.24.82v2.22h4.19v-2.22c0-.25-.02-.45-.07-.6-.05-.14-.16-.26-.35-.34-.18-.08-.46-.13-.85-.13v-.61h4.44v.61c-.38,0-.66.04-.84.13-.18.08-.3.2-.35.34-.05.14-.08.34-.08.6v5.67c0,.24.02.44.07.58.05.14.16.26.35.35.19.09.47.13.85.13v.61Z"/>
    <path class="cls-1" d="M51.46,83.89c0,.82-.2,1.59-.59,2.31-.39.72-.97,1.29-1.73,1.72-.77.43-1.67.65-2.71.65-.85,0-1.6-.14-2.25-.41-.65-.28-1.18-.64-1.59-1.11-.41-.46-.71-.97-.91-1.52-.2-.55-.3-1.1-.3-1.66,0-.8.19-1.56.57-2.28.38-.71.95-1.29,1.7-1.73.76-.44,1.67-.66,2.72-.66.96,0,1.78.16,2.46.47.67.32,1.2.71,1.58,1.19.38.48.65.98.81,1.51.16.53.24,1.03.24,1.5ZM49.3,83.87c0-.51-.04-.99-.13-1.44-.09-.45-.24-.86-.46-1.23-.22-.37-.51-.66-.89-.87-.38-.22-.84-.32-1.4-.32-.76,0-1.36.19-1.79.57-.43.38-.72.85-.87,1.42-.15.57-.23,1.19-.23,1.87,0,.37.02.76.07,1.17.05.4.17.82.35,1.24.19.42.48.78.89,1.07.41.29.94.44,1.58.44s1.17-.15,1.57-.45c.4-.3.69-.67.88-1.1.18-.43.3-.85.35-1.24.05-.39.07-.77.07-1.13Z"/>
    <path class="cls-1" d="M61.14,81.94h-.63c-.06-.56-.18-.97-.37-1.24-.19-.27-.39-.43-.61-.49-.22-.06-.47-.09-.75-.09h-1.14v6.61c0,.26.03.46.08.61.05.14.18.26.37.34.2.08.48.12.86.12v.61h-4.53v-.61c.55,0,.91-.08,1.07-.24s.24-.43.24-.83v-6.61h-.96c-.38,0-.69.03-.94.09-.25.06-.47.22-.66.49-.19.27-.3.68-.32,1.24h-.63v-2.56h8.92v2.56Z"/>
    <path class="cls-1" d="M69.95,85.44l-.07,2.97h-8.04v-.61c.55,0,.91-.08,1.07-.24.16-.16.24-.43.24-.83v-5.67c0-.26-.03-.46-.08-.6-.05-.14-.17-.26-.36-.34-.19-.08-.48-.12-.88-.12v-.61h7.49l.12,2.34h-.61c-.14-.52-.3-.89-.48-1.12-.18-.22-.38-.36-.61-.41-.22-.05-.56-.08-1.01-.08h-1.69v3.19h.92c.32,0,.55-.03.71-.08.16-.06.26-.16.33-.32.06-.16.1-.4.13-.73h.64v3h-.61c-.02-.33-.06-.58-.13-.74-.07-.16-.18-.26-.34-.32-.15-.05-.39-.08-.7-.08h-.93v2.12c0,.36,0,.61.03.78.02.16.07.3.14.41.08.11.2.19.38.24.18.05.42.07.75.07h.73c.31,0,.6-.04.88-.12.28-.08.55-.28.82-.6.27-.32.45-.83.56-1.51h.63Z"/>
    <path class="cls-1" d="M78.87,85.39l-.06,3.02h-8.04v-.61c.55,0,.91-.08,1.07-.24.16-.16.24-.43.24-.83v-5.67c0-.26-.03-.46-.08-.61-.05-.14-.18-.26-.37-.34-.19-.08-.48-.12-.86-.12v-.61h4.54v.61c-.38,0-.66.04-.86.11-.19.08-.32.19-.38.33-.06.14-.09.35-.09.62v5.19c0,.41.02.7.06.88.04.18.15.31.33.4.18.09.47.14.87.14.51,0,.96-.04,1.34-.12.38-.08.74-.28,1.07-.62.33-.34.53-.85.61-1.54h.61Z"/>
    <path class="cls-1" d="M86.48,85.82c0,.28-.06.58-.18.89-.12.31-.3.61-.54.9-.24.29-.55.52-.92.7-.37.18-.79.27-1.28.27s-.96-.1-1.43-.31c-.47-.21-.87-.52-1.2-.93-.14.33-.23.63-.27.91h-.61v-3.09h.61c.11.44.26.86.46,1.25.2.39.47.73.83,1.01.36.28.8.42,1.31.42.45,0,.82-.12,1.09-.37.27-.25.41-.56.41-.94,0-.21-.04-.4-.13-.56-.08-.16-.21-.3-.37-.43s-.38-.26-.66-.41c-.28-.14-.59-.3-.95-.46-.55-.26-.99-.52-1.34-.78-.35-.26-.62-.52-.8-.76s-.3-.48-.37-.7c-.07-.22-.1-.45-.1-.67,0-.4.11-.8.33-1.19.22-.39.54-.71.96-.97.42-.25.9-.38,1.45-.38.42,0,.82.09,1.21.28.38.19.71.45.99.78.08-.19.15-.45.22-.79h.63v2.52h-.63c-.44-1.37-1.22-2.06-2.32-2.06-.4,0-.72.11-.96.32-.24.21-.36.48-.36.82,0,.26.08.49.23.68.15.19.35.36.6.5.25.14.64.34,1.19.59.67.32,1.19.59,1.56.82.37.23.69.52.95.87.26.35.39.77.39,1.27Z"/>
    <path class="cls-1" d="M101.2,86.2c-.02.38-.11.75-.26,1.12-.15.36-.38.67-.68.91-.3.24-.68.37-1.14.37-.23,0-.45-.04-.67-.11-.22-.07-.46-.2-.71-.39-.26-.19-.57-.47-.95-.84-.48.46-.97.8-1.47,1.02-.5.22-.98.33-1.43.33-.52,0-.99-.12-1.41-.37-.42-.25-.74-.57-.97-.97-.23-.4-.34-.83-.34-1.29,0-.27.04-.56.13-.88.09-.32.3-.68.64-1.09.34-.41.83-.79,1.47-1.14-.25-.43-.43-.8-.56-1.13-.13-.33-.19-.68-.19-1.07s.07-.7.21-.99c.14-.29.32-.53.54-.71.22-.18.47-.32.75-.42.28-.1.56-.14.85-.14.42,0,.79.09,1.1.28.31.19.55.42.71.71.16.29.25.59.25.91,0,.42-.15.83-.45,1.24-.3.41-.74.76-1.31,1.06l2.24,2.93c.27-.34.51-.68.71-1.02.21-.34.31-.68.31-1,0-.11-.05-.24-.14-.4-.09-.16-.3-.24-.61-.24v-.67h2.98v.67c-.27.06-.48.14-.64.25-.16.11-.31.24-.43.41-.13.17-.34.49-.64.96l-.31.51c-.27.42-.53.78-.79,1.07.23.34.5.64.81.92.31.27.6.41.87.41.13,0,.26-.03.38-.11.12-.07.23-.2.32-.38.09-.18.15-.41.19-.69h.67ZM96.36,86.75l-2.55-3.31c-.72.43-1.09.97-1.09,1.62,0,.37.1.73.29,1.09.19.36.45.66.78.89.32.23.67.35,1.04.35.3,0,.57-.06.81-.18.24-.12.48-.27.72-.45ZM96.06,80.26c0-.2-.04-.38-.11-.56-.07-.17-.19-.32-.34-.42-.15-.11-.34-.16-.55-.16-.3,0-.54.1-.72.29-.17.2-.26.41-.26.66,0,.57.27,1.22.81,1.96.35-.27.64-.53.85-.78.21-.25.32-.58.32-.98Z"/>
    <path class="cls-1" d="M115.11,88.41h-2.42c-.09-.1-.2-.24-.33-.43-.13-.19-.27-.4-.43-.66-.16-.25-.28-.46-.39-.62l-.61-1.01c-.28-.45-.48-.76-.62-.93-.14-.17-.3-.27-.48-.32-.18-.05-.48-.07-.92-.07h-.34v2.36c0,.25.03.45.08.6.05.15.18.27.38.35.2.08.48.12.86.12v.61h-4.53v-.61c.55,0,.9-.08,1.06-.24.16-.16.24-.43.24-.83v-5.7c0-.39-.08-.66-.23-.82-.15-.16-.51-.24-1.07-.24v-.63l2.09-.07c.16,0,.34-.02.55-.02.21,0,.4,0,.58,0,.14,0,.37,0,.69.01.45.01.87.04,1.26.08.39.04.7.09.93.15.33.08.65.22.95.42.3.2.54.45.73.77.19.32.28.69.28,1.11,0,.3-.07.59-.2.88-.13.28-.34.54-.63.76-.29.22-.67.4-1.15.53.32.19.6.43.83.71.23.28.58.8,1.07,1.55.28.43.51.76.69.98.18.22.35.37.5.45.15.08.35.13.58.15v.61ZM111.37,81.78c0-.72-.22-1.2-.66-1.43-.44-.24-1.01-.35-1.71-.35-.1,0-.17,0-.23,0-.06,0-.12,0-.19,0v3.63h.42c.67,0,1.23-.11,1.69-.33.45-.22.68-.73.68-1.52Z"/>
    <path class="cls-1" d="M123.55,85.44l-.07,2.97h-8.04v-.61c.55,0,.91-.08,1.07-.24.16-.16.24-.43.24-.83v-5.67c0-.26-.03-.46-.08-.6-.05-.14-.17-.26-.36-.34-.19-.08-.48-.12-.88-.12v-.61h7.49l.12,2.34h-.61c-.14-.52-.3-.89-.48-1.12-.18-.22-.38-.36-.61-.41-.22-.05-.56-.08-1.01-.08h-1.69v3.19h.92c.32,0,.55-.03.71-.08.16-.06.26-.16.33-.32.06-.16.1-.4.13-.73h.64v3h-.61c-.02-.33-.06-.58-.13-.74-.07-.16-.18-.26-.34-.32-.15-.05-.39-.08-.7-.08h-.93v2.12c0,.36,0,.61.03.78.02.16.07.3.14.41.08.11.2.19.38.24.18.05.42.07.75.07h.73c.31,0,.6-.04.88-.12.28-.08.55-.28.82-.6.27-.32.45-.83.56-1.51h.63Z"/>
    <path class="cls-1" d="M131.27,85.82c0,.28-.06.58-.18.89-.12.31-.3.61-.54.9-.24.29-.55.52-.92.7-.37.18-.79.27-1.28.27s-.96-.1-1.43-.31c-.47-.21-.87-.52-1.2-.93-.14.33-.23.63-.27.91h-.61v-3.09h.61c.11.44.26.86.46,1.25.2.39.47.73.83,1.01.36.28.8.42,1.31.42.45,0,.82-.12,1.09-.37.27-.25.41-.56.41-.94,0-.21-.04-.4-.13-.56-.08-.16-.21-.3-.37-.43-.16-.13-.38-.26-.66-.41-.28-.14-.59-.3-.95-.46-.55-.26-.99-.52-1.34-.78-.35-.26-.62-.52-.8-.76s-.3-.48-.37-.7c-.07-.22-.1-.45-.1-.67,0-.4.11-.8.33-1.19.22-.39.54-.71.96-.97.42-.25.9-.38,1.45-.38.42,0,.82.09,1.21.28.38.19.71.45.99.78.08-.19.15-.45.22-.79h.63v2.52h-.63c-.44-1.37-1.22-2.06-2.32-2.06-.4,0-.72.11-.96.32-.24.21-.36.48-.36.82,0,.26.08.49.23.68.15.19.35.36.6.5.25.14.64.34,1.19.59.67.32,1.19.59,1.56.82.37.23.69.52.95.87.26.35.39.77.39,1.27Z"/>
    <path class="cls-1" d="M142.58,83.89c0,.82-.2,1.59-.59,2.31-.39.72-.97,1.29-1.73,1.72-.77.43-1.67.65-2.71.65-.85,0-1.6-.14-2.25-.41s-1.18-.64-1.59-1.11c-.41-.46-.71-.97-.91-1.52-.2-.55-.3-1.1-.3-1.66,0-.8.19-1.56.57-2.28.38-.71.95-1.29,1.7-1.73.76-.44,1.67-.66,2.72-.66.96,0,1.78.16,2.46.47.67.32,1.2.71,1.58,1.19.38.48.65.98.81,1.51.16.53.24,1.03.24,1.5ZM140.43,83.87c0-.51-.04-.99-.13-1.44-.09-.45-.24-.86-.46-1.23-.22-.37-.51-.66-.89-.87-.38-.22-.84-.32-1.4-.32-.76,0-1.36.19-1.79.57-.43.38-.72.85-.87,1.42-.15.57-.23,1.19-.23,1.87,0,.37.02.76.07,1.17.05.4.17.82.35,1.24.19.42.48.78.89,1.07.41.29.94.44,1.58.44s1.17-.15,1.57-.45c.4-.3.69-.67.88-1.1.18-.43.3-.85.35-1.24.05-.39.07-.77.07-1.13Z"/>
    <path class="cls-1" d="M153.31,88.41h-2.42c-.09-.1-.2-.24-.33-.43-.13-.19-.27-.4-.43-.66-.16-.25-.28-.46-.39-.62l-.61-1.01c-.28-.45-.48-.76-.62-.93-.14-.17-.3-.27-.48-.32s-.48-.07-.92-.07h-.34v2.36c0,.25.03.45.08.6.05.15.18.27.38.35.2.08.48.12.86.12v.61h-4.53v-.61c.55,0,.9-.08,1.06-.24.16-.16.24-.43.24-.83v-5.7c0-.39-.08-.66-.23-.82-.15-.16-.51-.24-1.07-.24v-.63l2.09-.07c.16,0,.34-.02.55-.02.21,0,.4,0,.58,0,.14,0,.37,0,.69.01.45.01.87.04,1.26.08.39.04.7.09.93.15.33.08.65.22.95.42.3.2.54.45.73.77.19.32.28.69.28,1.11,0,.3-.07.59-.2.88-.13.28-.34.54-.63.76-.29.22-.67.4-1.15.53.32.19.6.43.83.71.23.28.58.8,1.07,1.55.28.43.51.76.69.98.18.22.35.37.5.45.15.08.35.13.58.15v.61ZM149.57,81.78c0-.72-.22-1.2-.66-1.43-.44-.24-1.01-.35-1.71-.35-.1,0-.17,0-.23,0-.06,0-.12,0-.19,0v3.63h.42c.67,0,1.23-.11,1.69-.33.45-.22.68-.73.68-1.52Z"/>
    <path class="cls-1" d="M161.85,81.94h-.63c-.06-.56-.18-.97-.37-1.24-.19-.27-.39-.43-.61-.49-.22-.06-.47-.09-.75-.09h-1.14v6.61c0,.26.03.46.08.61.05.14.18.26.37.34.2.08.48.12.86.12v.61h-4.53v-.61c.55,0,.91-.08,1.07-.24.16-.16.24-.43.24-.83v-6.61h-.96c-.38,0-.69.03-.94.09-.25.06-.47.22-.66.49-.19.27-.3.68-.32,1.24h-.63v-2.56h8.92v2.56Z"/>
    <path class="cls-1" d="M169.44,85.82c0,.28-.06.58-.18.89-.12.31-.3.61-.54.9-.24.29-.55.52-.92.7-.37.18-.79.27-1.28.27s-.96-.1-1.43-.31c-.47-.21-.87-.52-1.2-.93-.14.33-.23.63-.27.91h-.61v-3.09h.61c.11.44.26.86.46,1.25.2.39.47.73.83,1.01.36.28.8.42,1.31.42.45,0,.82-.12,1.09-.37.27-.25.41-.56.41-.94,0-.21-.04-.4-.13-.56-.08-.16-.21-.3-.37-.43s-.38-.26-.66-.41c-.28-.14-.59-.3-.95-.46-.55-.26-.99-.52-1.34-.78-.35-.26-.62-.52-.8-.76s-.3-.48-.37-.7c-.07-.22-.1-.45-.1-.67,0-.4.11-.8.33-1.19.22-.39.54-.71.96-.97.42-.25.9-.38,1.45-.38.42,0,.82.09,1.21.28.38.19.71.45.99.78.08-.19.15-.45.22-.79h.63v2.52h-.63c-.44-1.37-1.22-2.06-2.32-2.06-.4,0-.72.11-.96.32-.24.21-.36.48-.36.82,0,.26.08.49.23.68.15.19.35.36.6.5.25.14.64.34,1.19.59.67.32,1.19.59,1.56.82.37.23.69.52.95.87.26.35.39.77.39,1.27Z"/>
  </g>
  <g>
    <path class="cls-1" d="M87.51,105.63h-4.72v-.58h.38c.33,0,.55-.02.67-.06.12-.04.18-.11.18-.21,0-.15-.17-.46-.51-.94l-1.82-2.58-1.08.95v1.84c0,.37.09.63.26.78.17.15.5.22.98.22v.58h-4.25v-.58c.36,0,.63-.04.81-.11.17-.08.29-.18.34-.32.05-.14.08-.33.08-.57v-5.34c0-.24-.02-.43-.07-.57-.05-.14-.16-.24-.34-.32-.18-.08-.45-.12-.81-.12v-.58h4.25v.58c-.52,0-.86.08-1.01.23-.15.15-.23.41-.23.78v2.56l2.65-2.31c.18-.16.32-.3.4-.41.08-.11.13-.24.13-.39,0-.3-.29-.45-.86-.45v-.58h3.88v.58c-.3.03-.55.06-.74.11-.19.05-.38.12-.55.23-.18.1-.38.24-.59.41-.21.17-.55.46-1.01.86l-.89.77,2.51,3.57c.27.38.49.66.66.85.17.19.36.32.55.4.2.08.46.13.78.14v.58Z"/>
    <path class="cls-1" d="M95.41,102.83l-.07,2.8h-7.57v-.58c.52,0,.86-.08,1.01-.23.15-.15.23-.41.23-.78v-5.34c0-.24-.02-.43-.07-.57-.05-.14-.16-.24-.34-.32-.18-.08-.45-.12-.82-.12v-.58h7.05l.11,2.21h-.58c-.13-.49-.28-.84-.45-1.05-.17-.21-.36-.34-.57-.39-.21-.05-.53-.07-.95-.07h-1.59v3h.87c.3,0,.52-.03.66-.08.15-.05.25-.15.31-.3.06-.15.1-.38.12-.69h.6v2.83h-.58c-.02-.31-.06-.54-.13-.69-.07-.15-.17-.25-.32-.3-.14-.05-.36-.08-.66-.08h-.88v2c0,.33,0,.58.03.73.02.15.06.28.13.39.07.1.19.18.36.22.17.05.4.07.71.07h.68c.29,0,.56-.04.82-.11.26-.07.52-.26.77-.56.25-.3.43-.78.53-1.43h.59Z"/>
    <path class="cls-1" d="M105.43,97.7c-.41,0-.7.04-.87.12-.18.08-.28.2-.33.36-.04.16-.06.42-.06.78v6.74h-.58l-5.56-6.61v4.68c0,.36.02.61.07.77.04.16.16.28.34.37.18.09.47.13.87.13v.58h-3.16v-.58c.38,0,.65-.04.82-.13.17-.09.27-.21.31-.37.04-.16.06-.42.06-.77v-4.34c0-.35,0-.61-.03-.79-.02-.18-.06-.33-.13-.46-.07-.13-.19-.24-.35-.32-.16-.08-.38-.14-.67-.17v-.58h2.48l4.84,5.72v-3.88c0-.32-.02-.56-.07-.73-.04-.17-.15-.3-.33-.39-.17-.09-.45-.14-.82-.14v-.58h3.17v.58Z"/>
    <path class="cls-1" d="M114.57,97.7c-.23.02-.42.07-.57.16-.15.09-.31.23-.46.43-.15.2-.38.53-.67.98l-1.79,2.76v2.01c0,.23.02.41.07.55.05.14.16.25.34.33.18.08.45.12.83.12v.58h-4.28v-.58c.36,0,.62-.03.81-.1.18-.07.3-.17.36-.31.06-.14.08-.33.08-.59v-1.9l-2.13-3.55s-.03-.05-.05-.08c-.02-.03-.03-.05-.04-.06-.18-.3-.35-.5-.49-.59-.14-.09-.36-.14-.64-.16v-.58h3.98v.58c-.2,0-.36,0-.48.02-.12.01-.21.05-.29.1-.07.05-.11.14-.11.26,0,.08.03.18.08.29.05.11.17.32.34.63l1.32,2.24,1.26-1.99c.27-.43.41-.75.41-.95,0-.26-.09-.43-.26-.5-.17-.07-.41-.1-.71-.1v-.58h3.09v.58Z"/>
    <path class="cls-1" d="M122.15,105.63h-4.01v-.58c.34,0,.59-.02.74-.07.15-.05.23-.16.23-.34,0-.13-.03-.25-.08-.38l-.4-1h-2.76l-.21.55c-.12.31-.18.53-.18.67,0,.25.1.41.29.48.19.07.42.1.68.1v.58h-2.93v-.58c.23,0,.43-.04.6-.13.16-.09.32-.25.47-.5.15-.24.31-.59.48-1.04l2.45-6.42h.6l2.59,6.62c.19.47.33.78.41.95.09.17.21.29.36.38.15.09.37.13.65.13v.58ZM118.41,102.64l-1.17-2.97-1.12,2.97h2.29Z"/>
  </g>
  <g>
    <path class="cls-1" d="M14.44,77.29c.08-.55.63-4.93.63-6.47,0-1.03.24-5.29.12-6.23l.91.24c-.04.51.16,2.76.28,3.47,1.06,2.52,3.39,4.3,6.11,4.3,3.12,0,5.6-2.05,5.6-4.97,0-3.19-2.48-4.77-5.05-6.43-3.87-2.52-6.94-4.73-6.94-9.19,0-3.08,2.29-6.94,8.13-6.94,2.33,0,4.38.47,5.32.71.28-.95.47-2.13.71-3.19l.91-.12c-.55,3.91-.95,7.57-.95,10.81l-.91-.39c0-1.34-.08-2.29-.16-3-.43-1.42-2.48-3.55-5.25-3.55-3.39,0-4.81,2.17-4.81,3.94,0,2.56,2.68,3.94,5.68,5.84,3.27,2.05,6.59,4.26,6.59,9.23,0,5.48-4.34,8.6-9.7,8.6-1.89,0-4.34-.39-5.44-.99-.2.75-.59,2.64-.87,4.1l-.91.24Z"/>
    <path class="cls-1" d="M51.16,72.64c1.38-.12,2.76-.28,3.98-.55-.71-2.05-3.51-10.41-4.14-11.56-1.38,0-7.65.28-9.11.51-.24.55-2.37,8.01-2.76,11.04.99.28,2.29.43,3.39.55l.16.83c-1.22-.08-4.81-.16-5.96-.16-1.03,0-3.67.08-4.58.16l.12-.83c1.14-.12,2.33-.32,3.39-.55,1.42-2.48,9.27-23.71,9.82-25.2-.87-.24-2.17-.39-3.12-.51l-.04-.83c1.18.08,4.46.16,5.13.16,1.66,0,5.6-.08,6.74-.16l-.12.83c-1.03.12-2.09.28-3,.51.47,1.74,2.64,7.93,4.14,12.07,1.1,3.04,3.55,9.66,5.36,13.13,1.14.24,2.29.39,3.47.55l.12.83c-.47-.08-4.46-.16-6.55-.16-1.14,0-5.6.08-6.67.16l.2-.83ZM46.71,47.55h-.08c-1.22,3.51-3.79,10.33-4.18,11.64l8.28.16c-.87-2.6-3.35-9.62-4.02-11.79Z"/>
    <path class="cls-1" d="M68.79,56.66c0-1.42-.04-8.99-.2-9.74-.67-.16-3.35-.39-4.22-.47l-.12-.83,8.52-.04c3.75,0,8.44.04,11.12,1.1,2.09.83,3.39,2.33,3.39,4.5,0,2.49-2.52,5.76-5.56,7.45.43.99,6.78,11.32,10.89,15.66l-1.74.28c-2.76-1.26-13.25-13.37-13.88-14.2-1.5.12-3.12.24-3.79.24v1.03c0,2.56.08,8.64.2,10.45.67.2,3.27.47,4.14.55l.16.83c-.99-.08-4.97-.16-6.78-.16-1.62,0-5.76.08-6.67.16l.16-.83c.55-.04,3.08-.28,4.18-.55.16-1.14.2-8.87.2-13.02v-2.41ZM73.21,59.38c1.42,0,3.12-.12,4.81-.75,1.7-.63,4.5-2.45,4.5-6.35,0-2.52-2.29-5.6-9.11-5.6-.12,1.62-.2,8.68-.2,11.48v1.22Z"/>
    <path class="cls-1" d="M97.86,69.52c-2.88-2.96-3.79-5.84-3.79-9.55,0-7.81,6.43-14.91,17.32-14.91,4.18,0,7.49.67,10.93,3.19,3.12,2.29,4.77,6.11,4.77,9.78,0,9.66-7.34,15.9-17.04,15.9-3.98,0-8.52-.67-12.19-4.42ZM122.28,60.92c0-8.36-5.8-14.36-12.35-14.36-5.4,0-11.32,3.63-11.32,11.75,0,7.06,5.68,14,13.37,14,5.64,0,10.29-5.09,10.29-11.4Z"/>
    <path class="cls-1" d="M128.04,45.54c1.26.08,3.47.16,5.68.16,2.45,0,5.96-.08,6.82-.16l-.2.83c-.83.08-3.04.32-3.71.55.28,1.34,8.01,19.52,9.03,20.79.91-1.81,8.05-16.61,8.84-20.79-.75-.16-2.37-.35-3.63-.55l-.2-.83c.55.08,3.35.16,5.76.16,1.85,0,3.47-.08,4.42-.16l-.2.83c-.75.16-1.38.32-2.41.55-.83.47-13.69,26.86-14.2,28.12-1.26-2.21-11.48-25.44-13.41-28.12-.51-.16-1.18-.35-2.45-.55l-.16-.83Z"/>
    <path class="cls-1" d="M174.58,72.64c1.38-.12,2.76-.28,3.98-.55-.71-2.05-3.51-10.41-4.14-11.56-1.38,0-7.65.28-9.11.51-.24.55-2.37,8.01-2.76,11.04.99.28,2.29.43,3.39.55l.16.83c-1.22-.08-4.81-.16-5.96-.16-1.03,0-3.67.08-4.58.16l.12-.83c1.14-.12,2.33-.32,3.39-.55,1.42-2.48,9.27-23.71,9.82-25.2-.87-.24-2.17-.39-3.12-.51l-.04-.83c1.18.08,4.46.16,5.13.16,1.66,0,5.6-.08,6.74-.16l-.12.83c-1.03.12-2.09.28-3,.51.47,1.74,2.64,7.93,4.14,12.07,1.1,3.04,3.55,9.66,5.36,13.13,1.14.24,2.29.39,3.47.55l.12.83c-.47-.08-4.46-.16-6.55-.16-1.14,0-5.6.08-6.67.16l.2-.83ZM170.12,47.55h-.08c-1.22,3.51-3.79,10.33-4.18,11.64l8.28.16c-.87-2.6-3.35-9.62-4.02-11.79Z"/>
  </g>
  <rect class="cls-1" x="29.6" y="92.41" width="140.36" height=".84"/>
</svg>