<?xml version="1.0" encoding="UTF-8"?>
<svg id="Layer_1" data-name="Layer 1" xmlns="http://www.w3.org/2000/svg" viewBox="0 0 200 132.46">
  <defs>
    <style>
      .cls-1 {
        fill: #3a190d;
      }

      .cls-2 {
        fill: #d81f33;
      }
    </style>
  </defs>
  <g>
    <path class="cls-1" d="M76.32,78.34c0-.08-.05-.13-.13-.13h-1.82c-1.88,0-2.71.84-2.71,2.7,0,1.14,0,9.85,0,10.01,0,.66.06,1.91-.35,2.49-.38.54-1.18,1.03-2.43.76-1.25-.27-2.25-2.06-2.29-2.1-.04-.04-.09-.08-.16-.05-.01,0-.02.01-.04.02-.52.24-2.99,1.41-3.53,1.66-.07.03-.07.13-.05.17,1.44,2.59,3.65,4.45,6.99,4.45,6.48,0,6.49-5.72,6.52-7.31,0-.19,0-12.53,0-12.68"/>
    <path class="cls-1" d="M98.25,97.87l-8.15-19.67c-.04-.09-.13-.14-.22-.14h-2.01c-1.88,0-2.18.48-2.91,2.24l-7.3,17.57c-.02.06.02.12.11.12h2.6s.13,0,.13,0c1.21-.04,2.04-.46,2.38-1.32,0,0,1.2-3.08,1.2-3.08.01-.04.05-.06.09-.06h7.61s.07.02.09.06l1.69,4.35s.01.04.06.04h4.56c.06,0,.11-.07.08-.13M90.26,89.73h-4.57c-.07,0-.11-.07-.09-.13l2.29-5.87c.03-.08.14-.08.17,0l2.29,5.87c.03.06-.02.13-.08.13"/>
    <path class="cls-1" d="M132.92,97.87l-8.15-19.67c-.04-.09-.13-.14-.22-.14h-2.01c-1.88,0-2.18.48-2.91,2.24l-7.3,17.57c-.02.06.02.12.11.12h2.6s.13,0,.13,0c1.21-.04,2.04-.46,2.38-1.32,0,0,1.2-3.08,1.2-3.08.01-.04.05-.06.09-.06h7.61s.07.02.09.06l1.69,4.35s.01.04.06.04h4.56c.06,0,.11-.07.08-.13M124.92,89.73h-4.57c-.07,0-.11-.07-.09-.13l2.29-5.87c.03-.08.14-.08.17,0l2.29,5.87c.03.06-.02.13-.08.13"/>
    <path class="cls-1" d="M114.99,78.21h-4.42c-.07,0-.14.05-.17.11l-5.02,13.55c-.04.09-.16.09-.2,0,0,0-4.53-12.21-4.53-12.22-.33-.99-1.15-1.44-2.53-1.44h-2.55c-.13,0-.22.13-.17.25,0,0,7.33,18.25,7.33,18.25.36.88,1.16,1.29,2.47,1.29h1.96c.09,0,.14-.05.17-.12h0l7.8-19.42c.05-.12-.04-.25-.17-.25"/>
    <path class="cls-1" d="M70.19,115.69v-.06c0-5.45,4.1-10.23,10.12-10.23s10.06,4.72,10.06,10.17v.06c0,5.45-4.1,10.23-10.11,10.23s-10.06-4.72-10.06-10.17M88.04,115.69v-.06c0-4.49-3.28-8.17-7.8-8.17s-7.74,3.62-7.74,8.11v.06c0,4.49,3.28,8.17,7.8,8.17s7.74-3.62,7.74-8.11"/>
    <path class="cls-1" d="M109.68,105.82s-.04-.08-.09-.08h-2.05s-.08.04-.09.08v11.43c0,4.32-2.32,6.53-5.97,6.53s-6.05-2.4-6.05-6.67v-11.28c0-.05-.04-.09-.09-.09h-.79c-.94,0-1.36.42-1.36,1.35v10.16c0,5.59,3.33,8.59,8.22,8.59s8.25-2.99,8.25-8.76v-11.26Z"/>
    <path class="cls-1" d="M66.82,105.83s-.04-.09-.09-.09h-.79c-.93,0-1.35.41-1.36,1.34v7.46h-11.42v-8.71s-.04-.09-.09-.09h-.78c-.93,0-1.35.42-1.36,1.34h0s0,18.36,0,18.36c0,.05.04.09.08.09h.79c.94,0,1.35-.41,1.36-1.34h0v-7.56h11.42v8.81c0,.05.04.09.09.09h2.05s.09-.04.09-.09h0v-19.61h0Z"/>
    <path class="cls-1" d="M120.7,114.56c-4.35-.93-5.37-1.98-5.37-3.84v-.06c0-1.78,1.64-3.19,4.21-3.19,1.97,0,3.76.61,5.54,2.02.02.02.05.04.07.06.05.04.12.04.15,0,.02-.03,1.38-1.75-.44-2.8-1.51-.87-3.18-1.28-5.27-1.28-3.76,0-6.5,2.29-6.5,5.4v.06c0,3.25,2.09,4.72,6.64,5.71,4.15.88,5.14,1.92,5.14,3.76v.06c0,1.95-1.75,3.36-4.41,3.36s-4.65-.9-6.68-2.7l-.04-.03s-.1-.03-.13,0c0,0-1.27,1.5-1.27,1.5-.03.04-.03.09.01.13l.04.03h0c2.34,2.06,4.89,3.07,7.98,3.07,3.93,0,6.75-2.2,6.75-5.59v-.06c0-3.02-2.03-4.63-6.44-5.59"/>
    <path class="cls-1" d="M144.69,105.74h-14.26s-.09.04-.09.09v19.61s.04.09.09.09h14.26s.09-.04.09-.09v-1.85s-.04-.09-.09-.09h-12.12v-6.92h9.44c.93,0,1.35-.41,1.36-1.33v-.71h-10.79v-6.76h10.86c.92,0,1.34-.41,1.35-1.32v-.63s-.04-.09-.09-.09"/>
  </g>
  <g>
    <path class="cls-2" d="M123.28,21.45c-3,1.67-4.54,1.2-5.33.71-.02-.03-.04-.06-.06-.09l-.1-.15c-1.38-2.07-3.07-3.91-5-5.45,3.48,1.09,4.67-3.06,6.17-4.38,1.63-1.44,3.11-.6,3.81-.39l.14-.18c-2.48-1.89-5.31-.84-6.99,1.29-1.92,2.43-3.41,2.79-4.36,2.73-.09-.06-.17-.12-.26-.18l-.19-.13c-1.98-1.33-4.17-2.36-6.5-3.05,3.31-.52,2.88-4.63,3.74-6.37.99-2.03,2.77-1.72,3.45-1.82l.14.08c.03-.06.07-.13.11-.19,0,0,0,0,0,0-3.16-1-5.48,1.09-6.25,3.79-.8,2.79-1.93,3.76-2.81,4.12-.15-.03-.29-.06-.44-.09l-.25-.05c-1.43-.27-2.92-.41-4.43-.41-.92,0-1.83.05-2.73.15,2.81-1.76.86-5.36.98-7.29.14-2.25,1.89-2.65,2.48-3h.17c0-.06.01-.13.02-.2,0,0,0,0,0-.01-3.31.28-4.65,3.11-4.32,5.89.33,2.87-.34,4.2-1.01,4.88-.15.03-.3.05-.45.08l-.25.05h0c-2.43.54-4.72,1.44-6.82,2.65,2.15-2.75-1.14-5.4-1.78-7.26-.73-2.14.74-3.17,1.15-3.73l.16-.05c-.02-.07-.04-.14-.06-.21,0,0,0,0,0-.01-2.94,1.53-3.1,4.65-1.74,7.09,1.5,2.7,1.28,4.21.85,5.06-.09.06-.18.12-.27.19l-.19.12s0,0,0,0c-2.09,1.49-3.94,3.3-5.48,5.38,1.39-3.68-2.93-4.9-4.29-6.44-1.5-1.69-.53-3.22-.37-3.88l-.17-.1c-1.94,2.49-.89,5.34,1.26,7.04,2.69,2.14,2.85,3.74,2.69,4.66-.02.03-.04.06-.06.09l-.25.04c.05.04.1.08.15.12-1.42,2.26-2.48,4.77-3.11,7.44l-.73.08c.26.41.38.79.43,1.1l-.04.16s.04.01.06.02c-.25,1.41-.38,2.85-.38,4.33,0,1.3.1,2.57.29,3.82l-.69.24c.41.28.66.59.84.86l.02.17s.04,0,.06,0c.54,2.6,1.49,5.05,2.78,7.28-2.92-2.94-5.76.69-7.73,1.37-2.13.73-3.17-.74-3.72-1.15l-.06-.16c-.07.02-.14.04-.21.06,0,0,0,0-.01,0,1.52,2.94,4.65,3.1,7.09,1.74,3.04-1.69,4.58-1.19,5.36-.69.02.02.03.05.05.07l.09.15s0,0,0,0c1.39,2.08,3.1,3.92,5.04,5.47-3.52-1.15-4.72,3.03-6.23,4.36-1.69,1.5-3.22.53-3.88.37l-.14-.1s-.09.08-.14.11c0,0,0,0,0,0,2.53,2.14,5.48,1.09,7.22-1.11,1.95-2.46,3.45-2.8,4.41-2.72.08.05.16.11.24.17-.04.03-.08.06-.12.09l.3.03c1.99,1.33,4.2,2.37,6.54,3.06-3.37.49-2.93,4.63-3.79,6.38-.99,2.03-2.77,1.72-3.45,1.82l-.15-.08c-.03.07-.07.13-.11.19,0,0,0,0,0,0,3.16,1.01,5.48-1.09,6.25-3.79.81-2.83,1.97-3.79,2.85-4.14.14.03.28.06.41.08l.24.05c1.43.27,2.91.41,4.42.41.94,0,1.87-.05,2.78-.16-2.88,1.75-.91,5.39-1.03,7.33-.14,2.25-1.9,2.65-2.48,3h-.17c0,.06-.01.13-.02.2,0,0,0,0,0,.01,3.3-.28,4.65-3.11,4.32-5.89-.34-2.92.36-4.25,1.05-4.91.14-.03.28-.05.42-.08l.24-.05c2.44-.53,4.75-1.44,6.86-2.67-2.23,2.77,1.1,5.44,1.75,7.31.73,2.14-.74,3.18-1.15,3.73l-.16.05c.02.07.04.13.06.2,0,0,0,0,0,.01,2.94-1.52,3.1-4.65,1.74-7.09-1.52-2.74-1.27-4.26-.83-5.1.08-.05.16-.11.25-.17l.18-.12s0,0,0,0c2.11-1.5,3.97-3.33,5.51-5.41-1.46,3.72,2.91,4.95,4.27,6.49,1.49,1.69.53,3.22.37,3.88h-.22c.08.09.16.18.23.28,0,0,0,0,0,0,2.14-2.53,1.09-5.48-1.11-7.22-2.73-2.17-2.85-3.78-2.68-4.7.02-.02.03-.04.04-.06l.09-.15c1.43-2.26,2.5-4.78,3.13-7.47l.6-.26c-.18-.32-.26-.63-.31-.88l.05-.16s-.04-.01-.06-.02c.25-1.42.38-2.87.38-4.35,0-1.28-.1-2.54-.28-3.76l.42-.47c-.26-.22-.44-.46-.58-.66l-.02-.16s-.04,0-.05,0c-.54-2.59-1.48-5.03-2.75-7.24,2.9,2.87,5.73-.73,7.69-1.41,2.14-.73,3.18.74,3.73,1.15l.05.16c.07-.02.13-.04.2-.06h.01c-1.52-2.95-4.65-3.1-7.09-1.74M89.49,14.57c2.6-1.01,5.42-1.56,8.37-1.56s5.56.51,8.08,1.45h-.02c1.09.48.51,1.73.51,1.73-1.85,4.11-7.24,9.95-7.4,10.14-.24.28-.12.72-.12.72.22,1.61,3.24,14.29,2.25,15.28h-6.68c-.99-.99,2.03-13.67,2.25-15.28,0,0,.11-.45-.12-.72-.17-.2-5.56-6.03-7.41-10.14,0,0-.5-1.08.3-1.62M119.28,27.47c-.42.55-.89,1.18-1.13,1.42-.39.4-.83.34-1.05.13-.22-.22-3.26-2.87-7.2-2.87s-6.67,2.87-7.35,3.44c-.61.5-.63.78-.29,1.28.17.26,3.61,3.45,7.64,3.45s7.54-1.95,10.2-4.4c.53,1.93.81,3.96.81,6.05,0,12.68-10.32,22.95-23.04,22.95s-23.04-10.28-23.04-22.96c0-2.07.27-4.07.79-5.97,2.65,2.41,6.04,4.32,10.11,4.32s7.47-3.19,7.64-3.45c.34-.51.32-.78-.29-1.28-.68-.57-3.42-3.44-7.35-3.44s-6.98,2.65-7.2,2.87c-.22.22-.65.27-1.05-.13-.23-.22-.66-.8-1.06-1.32,1.91-4.84,5.42-8.87,9.88-11.46l9.47,10.86c-.12,1.52-3.98,15.03-2.88,16.13.39.39,4.93,1.26,4.93,1.26,0,0,4.54-.88,4.93-1.26,1.11-1.1-2.75-14.61-2.88-16.13l9.51-10.9c4.47,2.57,7.99,6.58,9.91,11.41M110.18,28.08c-1.86,0-4.09.67-5.85,1.46.81-.75,2.51-2.09,5.12-2.26.17-.01.35-.02.53-.02,2.37,0,4.07,1.11,5.11,2.09-1.36-.89-3.28-1.28-4.9-1.28M111.45,31.1c0,1.18-.88,2.13-1.97,2.13s-1.97-.95-1.97-2.13c0-.56.2-1.07.53-1.45.74-.09,1.55-.15,2.44-.15.09,0,.19,0,.28,0,.41.39.67.96.67,1.6M107.39,32.91c-1.51-.56-2.79-1.58-3.3-2.29.6-.24,1.57-.57,2.88-.81-.19.38-.29.79-.29,1.24,0,.71.27,1.36.71,1.86M112.24,29.63c1.8.26,3.41.84,4.07,1.23-.55.54-2.36,1.62-4.49,2.15.5-.51.81-1.2.81-1.96,0-.51-.14-1-.39-1.42M88.63,29.81c1.3.24,2.28.57,2.88.81-.51.71-1.79,1.72-3.3,2.29.45-.5.72-1.15.72-1.86,0-.44-.11-.86-.29-1.24M85.43,28.08c-1.63,0-3.55.39-4.9,1.27,1.04-.98,2.74-2.09,5.11-2.09,2.91,0,4.79,1.47,5.65,2.27-1.77-.79-3.99-1.46-5.86-1.46M88.09,31.1c0,1.18-.88,2.13-1.97,2.13s-1.97-.95-1.97-2.13c0-.64.26-1.21.67-1.6.09,0,.19,0,.29,0,.89,0,1.71.06,2.44.15.33.38.53.89.53,1.45M83.37,29.63c-.25.42-.39.9-.39,1.42,0,.76.31,1.45.81,1.96-2.12-.53-3.94-1.61-4.49-2.15.66-.39,2.27-.97,4.07-1.23"/>
    <path class="cls-2" d="M132.45,36.39c-.35-.59-.75-2.35-3-2.48-2.13-.13-6.31,2.26-7.78-2.03l.42-.47c.72.61,2.06,1.15,4.69.84,2.72-.32,5.49.96,5.87,4.11l-.19.02Z"/>
    <path class="cls-2" d="M125.88,43.58c2.69.77,4.79,3.09,3.79,6.25,0,0,0,0-.01,0-.06-.04-.13-.07-.19-.11l.08-.14c-.1-.68.2-2.45-1.83-3.45-1.91-.94-6.67-.32-6.42-4.81l.6-.26c.45.83,1.49,1.82,3.99,2.53"/>
    <path class="cls-2" d="M132.66,36.58c-3.82-.56-6.24,6.66-11.07,3.6l.04-.16c4.91,1.42,7.2-6.81,10.83-3.63l.19-.02c.01.07.02.14.02.21,0,0,0,0-.01,0"/>
    <path class="cls-2" d="M130.16,23.25c-3.53,1.17-3.11,8.46-8.65,7.5l-.02-.17c5.08-.57,4.05-9.04,8.62-7.49l.05.16Z"/>
    <path class="cls-2" d="M129.54,49.57l-.08.14c-3.31-1.65-8.16,3.76-11.39-.77l.09-.15c3.99,3.16,9.25-3.54,11.37.78"/>
    <path class="cls-2" d="M122.76,11.69l.14-.18c.08.06.15.12.23.18,0,0,0,0,0,0-3.09,2.3.28,9.07-5.23,10.36l-.1-.15c4.41-2.49.25-9.88,5.05-10.2-.03,0-.05-.01-.08-.02"/>
    <path class="cls-2" d="M121.8,60.63h-.22c-2.47-2.59-8.79.34-10.1-4.84l.18-.12c2.54,4.25,9.83.19,10.14,4.95"/>
    <path class="cls-2" d="M111.1,15.22c2.92-3.97-3.59-9.14.68-11.25l.14.08c-1.63,3.28,3.65,8.06-.64,11.29l-.19-.12Z"/>
    <path class="cls-2" d="M100.73,46.77c.38,0,7.37,2.75,7.38,2.91,0,.17-3.41,6.27-10.35,6.27-7.61,0-10.31-6.14-10.31-6.27,0-.13,6.87-2.91,7.38-2.91.62,0,2.26.58,2.96.58s2.29-.58,2.95-.58M97.77,51.59c5.16,0,7.09-.94,8.5-1.4,0,0-5.76-1.86-6.53-1.86-.46,0-1.97.62-1.97.62,0,0-1.67-.62-1.97-.62-.8,0-6.79,1.82-6.79,1.82,3.08,1,5.4,1.44,8.77,1.44M97.81,54.69c3.28,0,6.25-1.4,7.62-3.1-1.34.42-5.57,1.05-7.65,1.05s-6.22-.63-7.56-1.05c1.38,2.03,3.98,3.1,7.6,3.1"/>
    <path class="cls-2" d="M110.42,67.9l-.16.05c-1.15-3.46-8.22-3.12-7.54-8.37l.24-.05c.81,4.8,8.98,3.88,7.46,8.37"/>
    <path class="cls-2" d="M102.29,11.62c1.05-4.72-6.82-7-3.69-10.55h.17c-.26,3.64,6.37,6.03,3.78,10.6l-.25-.05Z"/>
    <path class="cls-2" d="M96.96,70.24c.26-3.64-6.39-6.03-3.76-10.62l.24.05c-1.09,4.74,6.82,7.02,3.69,10.58h-.17Z"/>
    <path class="cls-2" d="M85.46,3.36c1.15,3.46,8.19,3.13,7.55,8.34l-.25.05c-.84-4.76-8.97-3.86-7.45-8.33l.15-.05Z"/>
    <path class="cls-2" d="M83.95,67.33l-.15-.08c1.62-3.25-3.56-7.98.54-11.21l.3.03c-2.95,3.97,3.58,9.15-.7,11.26"/>
    <path class="cls-2" d="M77.85,49.24l.09.15c-4.42,2.48-.26,9.89-5.06,10.2l-.14-.1c2.85-2.4-.34-8.99,5.1-10.25"/>
    <path class="cls-2" d="M73.92,10.68l-.17-.1c.05-.06.1-.12.15-.18,0,0,0,0,0,.01,2.28,3.06,8.96-.22,10.33,5.09l-.19.12c-2.55-4.22-9.82-.18-10.13-4.93"/>
    <path class="cls-2" d="M74.23,40.72c-5.08.56-4.05,9.05-8.61,7.49l-.05-.16c3.52-1.17,3.11-8.46,8.65-7.5l.02.16Z"/>
    <g>
      <path class="cls-2" d="M77.39,22.4c-3.97-2.85-9.11,3.6-11.21-.66l.08-.14c3.31,1.65,8.15-3.75,11.38.76l-.25.04Z"/>
      <path class="cls-2" d="M74.43,29.96c.23-4.44-4.51-3.84-6.42-4.77-2.03-.99-1.72-2.77-1.82-3.45l.08-.14c-.07-.03-.13-.07-.19-.11,0,0,0,0,0,0-1.01,3.16,1.09,5.48,3.79,6.24,2.28.65,3.35,1.53,3.86,2.31h0c.26.41.38.79.43,1.1.13-.25.29-1.18.29-1.18h0Z"/>
    </g>
    <path class="cls-2" d="M74.09,31.3c-4.91-1.42-7.2,6.81-10.82,3.63v-.17c3.71.27,6.12-6.63,10.87-3.62l-.04.16Z"/>
    <path class="cls-2" d="M63.27,34.92c.35.59.75,2.35,3.01,2.49,2.14.13,6.33-2.27,7.79,2.05l-.69.24c-.77-.52-2.09-.92-4.44-.65-2.78.32-5.61-1.02-5.89-4.32,0,0,.01,0,.01,0,.07,0,.14.02.21.02v.16Z"/>
  </g>
</svg>