<?xml version="1.0" encoding="UTF-8"?>
<svg id="Layer_1" data-name="Layer 1" xmlns="http://www.w3.org/2000/svg" xmlns:xlink="http://www.w3.org/1999/xlink" viewBox="0 0 200 132.46">
  <defs>
    <style>
      .cls-1, .cls-2, .cls-3 {
        fill: none;
      }

      .cls-4 {
        fill: #e70b89;
      }

      .cls-5 {
        fill: #231f20;
      }

      .cls-2 {
        stroke: #fff;
        stroke-width: 2.52px;
      }

      .cls-2, .cls-3 {
        stroke-miterlimit: 10;
      }

      .cls-3 {
        stroke: #231f20;
        stroke-width: 6.29px;
      }

      .cls-6 {
        fill: #fff;
      }

      .cls-7 {
        clip-path: url(#clippath);
      }
    </style>
    <clipPath id="clippath">
      <rect class="cls-1" x="-9.9" y="26.09" width="219.8" height="80.28"/>
    </clipPath>
  </defs>
  <g class="cls-7">
    <path class="cls-5" d="M47.73,65.98c0,7.89-6.84,14.29-15.27,14.29s-15.27-6.4-15.27-14.29,6.84-14.29,15.27-14.29,15.27,6.4,15.27,14.29"/>
    <path class="cls-3" d="M47.73,65.98c0,7.89-6.84,14.29-15.27,14.29s-15.27-6.4-15.27-14.29,6.84-14.29,15.27-14.29,15.27,6.4,15.27,14.29Z"/>
    <path class="cls-2" d="M47.33,65.98c0,7.69-6.66,13.92-14.87,13.92s-14.87-6.23-14.87-13.92,6.66-13.92,14.87-13.92,14.87,6.23,14.87,13.92Z"/>
    <path class="cls-6" d="M40.66,59.62c1.74-1.87-.05-2.77-.85-3.06-.2-.07-.41-.11-.62-.11h-14.1c-.24,0-.48.04-.7.12-3.9,1.37,1.47,3.88,1.47,3.88l.67-1.07c-1.89-1.55.07-2.57,1.41-2.09,1.35.48.17,2.06.17,2.06l-5.25,8.83c-3.47,6.59.47,7.25.47,7.25,4.65.72,3.47-3.58,3.47-3.58-3.35,0-2.52-1.89-1.39-3.34.76-.97,1.82-1.69,2.97-2.29,8.28-4.33,11.61-6.14,12.15-6.49.05-.03.09-.06.13-.1M31.06,58.06c.66.02,1.53.56,1.73,3.17l3.23-1.55s-.81-1.79.34-2.09c1.14-.3,2.16.78,1.48,1.82-.67,1.04-11.52,6.12-11.52,6.12,0,0,.58-2.97,3.76-7.02.22-.28.58-.46.97-.45"/>
    <path class="cls-6" d="M33.46,64.33l3.6-1.91,2.9,10.98s2.07.42,2.47,1.75c.04.14-.08.28-.25.28h-8.72s-.61-.36,2.36-1.73l-2.36-9.37Z"/>
    <path class="cls-4" d="M71.15,59.61c1.76-1.89-.05-2.8-.86-3.1-.2-.07-.41-.11-.63-.11h-14.28c-.24,0-.48.04-.7.12-3.95,1.39,1.49,3.93,1.49,3.93l.68-1.09c-1.91-1.57.07-2.6,1.43-2.11,1.36.48.17,2.08.17,2.08l-5.32,8.94c-3.51,6.68.48,7.34.48,7.34,4.71.72,3.51-3.62,3.51-3.62-3.39,0-2.55-1.91-1.4-3.38.77-.98,1.85-1.71,3.01-2.32,8.38-4.39,11.76-6.21,12.3-6.57.05-.03.09-.07.13-.11M61.43,58.03c.66.02,1.55.57,1.76,3.21l3.27-1.57s-.82-1.81.34-2.11c1.16-.3,2.18.79,1.5,1.84s-11.66,6.19-11.66,6.19c0,0,.59-3.01,3.81-7.1.22-.28.59-.47.98-.46"/>
    <path class="cls-4" d="M63.94,64.29l3.61-1.9,2.9,10.92s2.08.42,2.48,1.74c.04.14-.08.28-.25.28h-8.74s-.61-.36,2.36-1.72l-2.36-9.32Z"/>
    <path class="cls-4" d="M71.41,67.52l1.19-.3.15.38c.38.95.94,1.8,1.66,2.54.71.74,1.61,1.33,2.65,1.76,1.05.43,2.2.65,3.43.65,1.04,0,2.01-.15,2.89-.44.86-.28,1.53-.67,2.01-1.15.45-.45.67-.92.67-1.42,0-.8-.31-1.34-.98-1.7-.77-.42-1.9-.8-3.34-1.14l-4.24-1.03c-1.53-.37-2.74-.87-3.59-1.47-.93-.65-1.4-1.59-1.4-2.78,0-1.06.42-1.96,1.26-2.67.79-.67,1.79-1.16,2.98-1.46,1.16-.29,2.35-.44,3.55-.44.68,0,1.24.03,1.65.09.4.06.95.15,1.64.28.66.12,1.16.18,1.49.18s.58-.1.81-.32l.61-.57,1.6,6.24-1.15.21-.15-.35c-.29-.69-.77-1.3-1.42-1.83-.67-.54-1.46-.97-2.36-1.27-.9-.3-1.85-.46-2.8-.46-.54,0-1.11.07-1.69.21-.55.13-1.02.33-1.39.6-.31.22-.45.48-.45.82,0,.16.06.29.19.42.17.17.4.31.69.42.32.13.68.24,1.05.33.4.1.73.18.99.25l4.45,1.05c.84.2,1.63.43,2.35.68.75.26,1.4.6,1.91.99,1.26.94,1.91,2.18,1.91,3.68,0,.96-.28,1.87-.84,2.69-.54.8-1.28,1.48-2.19,2.03-.89.54-1.92.96-3.06,1.25-1.13.29-2.28.43-3.43.43-.68,0-1.27-.04-1.74-.12-.45-.08-1.13-.21-2.09-.41-.9-.18-1.55-.28-1.94-.28-.26,0-.51.11-.76.33l-.58.51-2.2-7.43Z"/>
    <path class="cls-4" d="M102.47,74.58v-1.09l.44-.03c.52-.04.91-.16,1.12-.34.22-.19.35-.4.39-.63.06-.31.1-.8.12-1.47v-7.12h-8.52v6.96c0,.86.1,1.53.31,1.99.06.13.24.52,1.32.61l.44.04v1.09h-8.61v-1.07l.42-.05c.51-.06,1.15-.21,1.34-.6.2-.4.3-1.02.3-1.84v-10.1c0-.59-.03-1.07-.1-1.43-.06-.3-.2-.55-.43-.78-.22-.21-.59-.35-1.12-.41l-.43-.05v-1.09h8.61v1.1l-.44.04c-.53.05-.91.17-1.12.36-.22.2-.36.43-.41.69-.07.33-.1.79-.1,1.37v1.03h8.52v-.84c-.02-.93-.13-1.63-.33-2.06-.15-.32-.58-.51-1.29-.55l-.45-.03v-1.11h8.64v1.1l-.44.04c-.52.05-.89.17-1.11.37-.23.21-.36.42-.41.65-.06.3-.1.78-.12,1.42v10.1c.02.66.06,1.16.12,1.49.05.26.18.49.41.72.22.21.59.35,1.12.41l.42.05v1.07h-8.64Z"/>
    <path class="cls-4" d="M126.8,74.79s-.29-.21-1.53-.21h-13.21v-1.07l.42-.05c.51-.06,1.15-.21,1.34-.59.2-.39.3-1.02.3-1.85v-10.1c0-.59-.03-1.07-.1-1.43-.06-.3-.2-.55-.43-.78-.22-.21-.59-.35-1.12-.41l-.43-.05v-1.09h8.61v1.1l-.45.03c-.72.05-1.16.24-1.32.55-.2.42-.31,1.05-.31,1.87v10.5c0,.46.13.78.4.96.31.21.81.32,1.49.32,1.28,0,2.49-.19,3.61-.58,1.12-.38,2.1-.92,2.93-1.6.83-.68,1.55-1.51,2.12-2.46l.21-.34,1.14.43-3.19,7.26-.51-.43Z"/>
    <path class="cls-4" d="M145.63,74.75s-.08-.08-.26-.11c-.2-.04-.46-.05-.78-.05h-15.12v-1.07l.42-.05c.54-.07.92-.2,1.14-.4.23-.2.36-.43.41-.7.07-.33.1-.78.1-1.34v-10.1c0-.85-.11-1.51-.32-1.96-.16-.35-.61-.57-1.33-.65l-.42-.05v-1.09h14.13c.96,0,1.33-.14,1.46-.22l.56-.34,1.72,6.04-1.07.37-.19-.36c-.4-.74-.98-1.37-1.74-1.87-.78-.51-1.69-.9-2.7-1.15-1.02-.25-2.09-.38-3.18-.38-1.37,0-1.87.19-2.05.31-.25.16-.39.64-.39,1.34v.96h2.68c.52,0,.97-.03,1.35-.09.31-.05.56-.15.76-.32.16-.13.24-.34.24-.63v-.33l1.15-.33,1.42,6.51-1.11.33-.16-.41c-.32-.84-.73-1.45-1.22-1.81-.5-.37-1.06-.59-1.71-.67-.71-.09-1.76-.14-3.12-.14h-.28v6.26c0,.91.08,1.34.14,1.55.02.08.1.31.58.51.28.11.86.24,2.08.24,4.21,0,7.21-1.51,9.14-4.6l.18-.29,1.22.27-3.22,7.42-.52-.58Z"/>
    <path class="cls-4" d="M153.13,74.58v-1.08l.44-.04c.52-.05.91-.17,1.12-.36.22-.2.35-.42.41-.7.07-.34.1-.81.1-1.39v-4.37l-4.98-6.2c-.61-.75-1.1-1.31-1.48-1.66-.32-.29-.74-.45-1.29-.48l-.45-.03v-1.11h9.17v1.12l-.46.02c-1.09.04-1.09.39-1.09.53,0,.31.2.92,1.18,2.1l2.59,3.25,2.54-3.29c.46-.58.8-1.07,1.04-1.45.25-.41.3-.66.3-.79,0-.26-.59-.33-.94-.34l-.46-.02v-1.12h7.15v1.1l-.44.04c-.34.03-.63.1-.88.2-.26.11-.48.24-.65.39-.2.16-.4.36-.62.59-.22.24-.46.51-.71.8l-5.02,6.36v4.2c0,.91.1,1.6.31,2.05.06.13.23.51,1.3.56l.46.02v1.11h-8.64Z"/>
    <path class="cls-4" d="M166.27,67.52l1.19-.3.15.38c.38.95.94,1.8,1.66,2.54.71.74,1.61,1.33,2.65,1.76,1.05.43,2.2.65,3.43.65,1.04,0,2.01-.15,2.89-.44.86-.28,1.53-.67,2.01-1.15.45-.45.67-.92.67-1.42,0-.8-.31-1.34-.98-1.7-.77-.42-1.9-.8-3.34-1.14l-4.24-1.03c-1.53-.37-2.74-.87-3.59-1.47-.93-.65-1.4-1.59-1.4-2.78,0-1.06.42-1.96,1.26-2.67.79-.67,1.79-1.16,2.98-1.46,1.16-.29,2.35-.44,3.55-.44.68,0,1.24.03,1.65.09.4.06.95.15,1.64.28.66.12,1.16.18,1.49.18s.58-.1.81-.32l.61-.57,1.6,6.24-1.15.21-.15-.35c-.29-.69-.77-1.3-1.42-1.83-.67-.54-1.46-.97-2.36-1.27-.9-.3-1.85-.46-2.8-.46-.54,0-1.11.07-1.69.21-.55.13-1.02.33-1.39.6-.31.22-.45.48-.45.82,0,.16.06.29.19.42.17.17.4.31.69.42.32.13.68.24,1.05.33.4.1.73.18.99.25l4.45,1.05c.84.2,1.63.43,2.35.68.75.26,1.4.6,1.91.99,1.26.94,1.91,2.18,1.91,3.68,0,.96-.28,1.87-.84,2.69-.55.8-1.28,1.48-2.19,2.03-.89.54-1.92.96-3.06,1.25-1.13.29-2.28.43-3.43.43-.68,0-1.27-.04-1.74-.12-.45-.08-1.13-.21-2.09-.41-.9-.18-1.55-.28-1.94-.28-.26,0-.51.11-.76.33l-.58.52-2.2-7.43Z"/>
  </g>
</svg>