<?xml version="1.0" encoding="UTF-8"?>
<svg id="Layer_1" data-name="Layer 1" xmlns="http://www.w3.org/2000/svg" viewBox="0 0 200 132.46">
  <defs>
    <style>
      .cls-1 {
        fill: #0069b4;
      }

      .cls-2 {
        fill: #f26f21;
      }
    </style>
  </defs>
  <g>
    <path class="cls-1" d="M7.11,77.63h5.62c.05,1.1.47,1.93,1.24,2.48.83.55,1.93.83,3.3.83.99,0,1.84-.19,2.56-.58.66-.38.99-.91.99-1.57,0-.99-1.16-1.73-3.47-2.23-.99-.17-1.73-.33-2.23-.5-2.92-.71-4.87-1.57-5.86-2.56-1.1-.99-1.65-2.31-1.65-3.96,0-2.09.8-3.83,2.4-5.2,1.65-1.27,3.8-1.9,6.44-1.9,2.86,0,5.15.63,6.86,1.9,1.6,1.38,2.45,3.17,2.56,5.37h-3.55c-1.05,0-1.85-.47-2.4-1.4-.22-.22-.44-.44-.66-.66-.66-.5-1.57-.74-2.73-.74s-1.93.17-2.48.5c-.5.33-.74.83-.74,1.49,0,.88,1.43,1.62,4.3,2.23.33.11.62.19.87.25.25.06.48.08.7.08,2.81.72,4.76,1.54,5.86,2.48,1.05.99,1.57,2.31,1.57,3.96,0,2.42-.88,4.29-2.64,5.62-1.65,1.21-4.13,1.82-7.43,1.82s-5.48-.63-7.02-1.9c-1.6-1.27-2.4-3.11-2.4-5.53v-.25Z"/>
    <path class="cls-1" d="M46.67,84.9h-5.7v-14.04c0-1.32-.4-2.28-1.2-2.89-.8-.61-1.69-.91-2.68-.91s-1.87.3-2.64.91c-.77.61-1.16,1.57-1.16,2.89v14.04h-5.78v-12.89c0-3.74.98-6.25,2.93-7.52,1.95-1.27,4.12-1.95,6.48-2.06,1.27,0,2.51.14,3.72.41,1.21.28,2.31.83,3.3,1.65.83-.71,1.8-1.23,2.93-1.53,1.13-.3,2.3-.48,3.51-.54,2.42,0,4.65.63,6.69,1.9,2.04,1.27,3.06,3.83,3.06,7.68v12.89h-2.89c-.83,0-1.5-.26-2.02-.79-.52-.52-.78-1.2-.78-2.02v-11.23c0-1.32-.4-2.28-1.2-2.89-.8-.61-1.69-.91-2.68-.91s-1.89.3-2.68.91c-.8.61-1.2,1.57-1.2,2.89v14.04Z"/>
    <path class="cls-1" d="M75.75,83.99c-1.16.61-2.38.98-3.68,1.12-1.29.14-2.44.21-3.43.21-1.98,0-3.72-.54-5.2-1.61-1.49-1.07-2.23-2.85-2.23-5.33,0-2.31.67-3.96,2.02-4.96,1.35-.99,3.07-1.65,5.16-1.98.27,0,.61-.04.99-.12.38-.08.83-.15,1.32-.21,2.42-.33,3.63-1.05,3.63-2.15,0-.83-.43-1.36-1.28-1.61-.85-.25-1.64-.37-2.35-.37-.77,0-1.46.11-2.07.33-.61.22-1.05.63-1.32,1.24h-5.53c.22-1.71.99-3.11,2.31-4.21,1.49-1.27,3.61-1.9,6.36-1.9,3.08,0,5.4.52,6.94,1.57,1.6,1.1,2.4,2.64,2.4,4.63v7.52c0,2.2-.4,3.92-1.2,5.16-.8,1.24-1.75,2.13-2.85,2.68ZM74.43,73.83c-.77.39-1.85.74-3.22,1.07l-1.9.41c-.99.28-1.71.63-2.15,1.07-.39.61-.58,1.21-.58,1.82,0,.83.25,1.49.74,1.98.5.44,1.21.66,2.15.66,1.54,0,2.75-.44,3.63-1.32.88-.88,1.32-2.09,1.32-3.63v-2.07Z"/>
    <path class="cls-1" d="M80.62,84.9v-10.66c0-2.15.32-3.95.95-5.41.63-1.46,1.5-2.63,2.6-3.51,1.05-.83,2.27-1.43,3.68-1.82,1.4-.38,2.85-.58,4.34-.58h.83v5.86h-1.9c-1.6,0-2.78.39-3.55,1.16-.77.77-1.16,1.98-1.16,3.63v11.32h-5.78Z"/>
    <path class="cls-1" d="M103.34,84.9c-1.82.11-3.79.08-5.91-.08-2.12-.17-3.18-1.51-3.18-4.05v-24.28h2.97c.71,0,1.35.28,1.9.83.55.55.83,1.21.83,1.98v3.72h3.39v1.16c0,.83-.28,1.5-.83,2.02-.55.52-1.21.78-1.98.78h-.58v12.22c0,.94.55,1.4,1.65,1.4h1.73v4.3Z"/>
    <path class="cls-2" d="M118.37,83.58v-1.4c-.99,1.54-2.33,2.51-4.01,2.89-1.68.38-3.35.25-5-.41-1.65-.66-3.07-1.89-4.25-3.68-1.18-1.79-1.78-4.14-1.78-7.06,0-3.41.78-6.18,2.35-8.3,1.57-2.12,4.09-3.18,7.56-3.18,2.64,0,5.09.72,7.35,2.15,2.26,1.43,3.39,4.08,3.39,7.93v11.65c0,3.85-1.13,6.48-3.39,7.89-2.26,1.4-4.71,2.11-7.35,2.11-5.07,0-8.21-2.37-9.42-7.1h6.03c.44.77,1.11,1.36,2.02,1.78.91.41,1.82.52,2.73.33.91-.19,1.73-.73,2.48-1.61.74-.88,1.17-2.2,1.28-3.96ZM108.95,74.08c0,3.8,1.1,5.91,3.3,6.32,2.2.41,3.83-.1,4.87-1.53.5-.61.85-1.56,1.07-2.85.22-1.29.23-2.57.04-3.84-.19-1.27-.65-2.4-1.36-3.39-.72-.99-1.76-1.49-3.14-1.49-1.87,0-3.14.69-3.8,2.06-.66,1.38-.99,2.95-.99,4.71Z"/>
    <path class="cls-2" d="M125.7,92.67v-4.54h1.57c1.1,0,1.97-.26,2.6-.79.63-.52.76-1.36.37-2.52l-7.68-21.89h6.36l4.46,15.53,3.88-13.55c.33-1.32,1.21-1.98,2.64-1.98h3.96l-8.42,25.03c-.66,1.82-1.49,3.11-2.48,3.88-.99.66-2.62.99-4.87.99h-1.16c-.17-.06-.37-.1-.62-.12-.25-.03-.45-.04-.62-.04Z"/>
    <path class="cls-2" d="M161.67,84.9h-5.7v-14.04c0-1.32-.4-2.28-1.2-2.89-.8-.61-1.69-.91-2.68-.91s-1.87.3-2.64.91c-.77.61-1.16,1.57-1.16,2.89v14.04h-5.78v-12.89c0-3.74.98-6.25,2.93-7.52,1.95-1.27,4.12-1.95,6.48-2.06,1.27,0,2.5.14,3.72.41,1.21.28,2.31.83,3.3,1.65.83-.71,1.8-1.23,2.93-1.53,1.13-.3,2.3-.48,3.51-.54,2.42,0,4.65.63,6.69,1.9,2.04,1.27,3.06,3.83,3.06,7.68v12.89h-2.89c-.83,0-1.5-.26-2.02-.79-.52-.52-.78-1.2-.78-2.02v-11.23c0-1.32-.4-2.28-1.2-2.89-.8-.61-1.69-.91-2.68-.91s-1.89.3-2.68.91c-.8.61-1.2,1.57-1.2,2.89v14.04Z"/>
    <path class="cls-2" d="M176.21,77.63h5.62c.05,1.1.47,1.93,1.24,2.48.83.55,1.93.83,3.3.83.99,0,1.84-.19,2.56-.58.66-.38.99-.91.99-1.57,0-.99-1.16-1.73-3.47-2.23-.99-.17-1.73-.33-2.23-.5-2.92-.71-4.87-1.57-5.86-2.56-1.1-.99-1.65-2.31-1.65-3.96,0-2.09.8-3.83,2.4-5.2,1.65-1.27,3.8-1.9,6.44-1.9,2.86,0,5.15.63,6.86,1.9,1.6,1.38,2.45,3.17,2.56,5.37h-3.55c-1.05,0-1.85-.47-2.4-1.4-.22-.22-.44-.44-.66-.66-.66-.5-1.57-.74-2.73-.74s-1.93.17-2.48.5c-.5.33-.74.83-.74,1.49,0,.88,1.43,1.62,4.3,2.23.33.11.62.19.87.25.25.06.48.08.7.08,2.81.72,4.76,1.54,5.86,2.48,1.05.99,1.57,2.31,1.57,3.96,0,2.42-.88,4.29-2.64,5.62-1.65,1.21-4.13,1.82-7.43,1.82s-5.48-.63-7.02-1.9c-1.6-1.27-2.39-3.11-2.39-5.53v-.25Z"/>
  </g>
  <path class="cls-2" d="M50.91,32.67s21.18,5.33,21.18,10.51-42.36,11.99-42.36,11.99l21.18-22.5Z"/>
</svg>